<?xml version="1.0" encoding="UTF-8" standalone="no"?>
<svg
   version="1.0"
   width="241.000000pt"
   height="234.000000pt"
   viewBox="0 0 241.000000 234.000000"
   preserveAspectRatio="xMidYMid meet"
   id="svg8"
   sodipodi:docname="whitelogo.svg"
   inkscape:version="1.1 (c68e22c387, 2021-05-23)"
   xmlns:inkscape="http://www.inkscape.org/namespaces/inkscape"
   xmlns:sodipodi="http://sodipodi.sourceforge.net/DTD/sodipodi-0.dtd"
   xmlns="http://www.w3.org/2000/svg"
   xmlns:svg="http://www.w3.org/2000/svg">
  <defs
     id="defs12" />
  <sodipodi:namedview
     id="namedview10"
     pagecolor="#ffffff"
     bordercolor="#666666"
     borderopacity="1.0"
     inkscape:pageshadow="2"
     inkscape:pageopacity="0.0"
     inkscape:pagecheckerboard="0"
     inkscape:document-units="pt"
     showgrid="false"
     inkscape:zoom="2.6987179"
     inkscape:cx="160.63183"
     inkscape:cy="156"
     inkscape:window-width="1920"
     inkscape:window-height="1046"
     inkscape:window-x="-11"
     inkscape:window-y="1789"
     inkscape:window-maximized="1"
     inkscape:current-layer="svg8" />
  <g
     transform="translate(0.000000,234.000000) scale(0.100000,-0.100000)"
     fill="#000000"
     stroke="none"
     id="g6"
     style="fill:#ffffff">
    <path
       d="M1197 2253 c-47 -49 -168 -176 -270 -283 -102 -107 -264 -267 -361 -354 -96 -88 -172 -164 -169 -169 6 -10 -26 -47 -41 -47 -7 0 -17 14 -23 30 -13 34 -34 38 -88 16 -22 -10 -41 -28 -54 -55 -12 -22 -25 -42 -31 -46 -5 -3 -10 -18 -10 -31 0 -19 8 -29 30 -37 22 -8 28 -16 24 -27 -10 -23 -34 -132 -34 -157 0 -13 -5 -23 -10 -23 -7 0 -8 13 -4 35 8 43 -8 65 -45 65 -60 0 -95 -64 -53 -96 16 -13 16 -15 -1 -25 -31 -18 -16 -78 24 -91 7 -2 7 -11 -1 -30 -15 -31 4 -85 32 -94 12 -3 18 -16 18 -37 1 -18 2 -79 4 -137 2 -89 -1 -115 -20 -168 -28 -78 -22 -92 50 -113 l51 -14 -1 -50 c0 -28 -5 -79 -12 -115 -11 -58 -10 -66 5 -77 24 -18 115 -16 139 2 19 15 19 15 -5 35 -13 11 -29 20 -36 20 -8 0 -11 8 -8 20 3 11 8 20 12 20 4 0 5 29 3 65 l-4 65 57 0 57 0 -3 -98 c-1 -54 1 -104 5 -111 12 -18 311 -5 344 15 28 18 29 58 2 102 -22 35 -29 155 -10 167 5 3 10 23 10 44 0 20 7 46 15 57 19 26 18 92 -4 128 -17 29 -30 40 -64 50 -17 6 -18 18 -13 188 6 170 7 183 29 206 l22 24 -22 18 c-16 13 -23 29 -23 54 0 24 -5 39 -16 43 -19 7 -34 -13 -34 -47 0 -34 -17 -50 -52 -50 l-28 0 0 100 0 100 68 0 c37 0 130 3 208 7 l140 6 12 -184 c7 -101 12 -329 12 -506 l0 -323 -25 -6 c-36 -9 -50 -39 -35 -75 14 -32 6 -75 -17 -101 -8 -9 -13 -25 -11 -35 3 -16 18 -19 133 -24 72 -4 192 -7 268 -8 88 -1 144 -5 157 -13 14 -9 24 -9 42 0 13 6 66 16 118 21 52 6 122 15 155 21 33 6 86 15 118 21 32 5 77 7 100 4 36 -5 46 -2 75 22 33 28 33 29 43 153 14 172 15 219 18 683 1 224 5 407 8 407 3 0 21 -14 40 -30 29 -26 41 -30 81 -27 33 2 48 8 50 19 2 10 -40 54 -110 116 -62 55 -124 111 -137 126 -14 14 -31 26 -38 26 -8 0 -170 158 -361 350 -311 315 -349 350 -378 350 -27 0 -45 -13 -117 -87z m-47 -418 c0 -3 -4 -13 -10 -23 -5 -9 -16 -35 -25 -57 -9 -22 -21 -49 -27 -59 -5 -10 -20 -46 -33 -80 -13 -34 -28 -74 -34 -90 -18 -45 -24 -23 -8 26 24 68 56 149 82 203 13 28 26 58 29 68 5 15 26 25 26 12z m378 -37 c30 -35 38 -49 77 -128 52 -107 87 -172 123 -229 20 -32 42 -67 48 -77 7 -11 15 -15 20 -11 9 8 -19 70 -47 102 -23 27 -92 155 -86 161 2 2 28 -33 58 -78 67 -103 97 -138 121 -138 25 0 23 12 -7 40 -22 21 -141 187 -170 239 -5 9 -25 36 -43 59 -19 23 -32 47 -30 54 3 7 16 -5 31 -26 14 -21 49 -66 77 -100 69 -83 146 -181 199 -255 24 -34 50 -61 57 -61 23 0 28 29 9 50 -27 30 -94 134 -89 139 6 7 44 -31 44 -44 0 -7 9 -20 21 -31 12 -10 27 -31 35 -46 15 -30 61 -65 71 -55 3 3 -20 36 -52 72 -76 87 -56 83 29 -5 37 -38 71 -70 75 -70 11 0 22 -493 11 -500 -4 -3 -4 -30 2 -60 7 -38 7 -91 -1 -175 -6 -66 -14 -182 -17 -257 -4 -85 -10 -140 -18 -146 -21 -15 -200 -51 -286 -57 -47 -4 -134 -10 -195 -15 -60 -5 -175 -9 -255 -9 l-145 -1 -19 46 c-16 39 -17 51 -7 86 16 51 8 59 -58 66 l-51 5 0 227 c0 125 -3 355 -7 512 l-6 286 23 4 c20 3 27 16 53 103 16 55 31 115 34 133 3 17 9 32 14 32 6 0 8 -55 7 -129 -3 -115 2 -154 17 -140 2 3 8 33 12 67 4 35 13 63 18 62 6 0 11 -29 13 -64 l3 -64 32 2 32 2 6 104 c3 58 6 90 7 72 1 -22 6 -32 15 -29 6 2 17 -8 22 -23 6 -14 19 -49 30 -78 11 -29 25 -52 32 -52 19 0 11 67 -13 115 -25 48 -58 169 -52 187 3 7 10 -5 17 -27 24 -76 94 -250 107 -264 14 -15 34 -7 34 14 0 9 6 12 17 8 13 -5 15 -3 8 13 -4 10 -14 37 -22 59 -25 71 -56 125 -71 125 -8 0 -12 6 -9 14 3 7 2 17 -2 22 -5 5 -14 32 -21 59 -7 28 -17 55 -22 62 -5 7 -8 22 -6 35 4 22 5 21 17 -7 7 -16 21 -47 32 -67 10 -20 19 -43 19 -51 0 -8 9 -22 20 -32 11 -10 20 -24 20 -31 0 -11 8 -30 44 -99 5 -11 25 -50 43 -87 31 -62 37 -68 64 -68 25 0 30 4 29 23 -4 41 1 42 18 7 12 -25 25 -36 45 -38 30 -4 35 9 12 28 -9 7 -26 36 -39 64 -13 29 -31 58 -40 65 -9 7 -16 23 -16 34 0 11 -6 28 -14 36 -7 9 -29 45 -48 81 -54 101 -79 144 -89 155 -10 10 -12 25 -3 25 3 0 17 -14 32 -32z m-608 12 c0 -5 -4 -10 -10 -10 -5 0 -10 5 -10 10 0 6 5 10 10 10 6 0 10 -4 10 -10z m120 -54 c-11 -25 -25 -46 -30 -46 -11 0 -3 23 23 68 28 47 32 33 7 -22z m660 44 c0 -5 -4 -10 -10 -10 -5 0 -10 5 -10 10 0 6 5 10 10 10 6 0 10 -4 10 -10z m-471 -97 c0 -49 -4 -108 -8 -133 -7 -34 -9 -13 -10 88 -1 82 3 132 9 132 6 0 10 -35 9 -87z m491 67 c0 -5 -4 -10 -10 -10 -5 0 -10 5 -10 10 0 6 5 10 10 10 6 0 10 -4 10 -10z m-932 -38 c-14 -15 -29 -35 -34 -44 -11 -21 -98 -129 -142 -177 l-34 -36 26 40 c14 22 26 44 26 49 0 5 24 35 53 66 28 31 67 76 86 99 18 23 36 40 39 36 3 -3 -6 -18 -20 -33z m92 33 c0 -22 -165 -235 -183 -235 -6 0 2 13 17 29 16 17 34 38 40 49 54 93 126 183 126 157z m56 -62 c-40 -79 -65 -115 -66 -94 0 27 -47 -29 -85 -100 -45 -86 -42 -110 5 -40 32 47 50 62 50 43 0 -4 -15 -30 -33 -57 l-32 -50 -98 -3 c-78 -2 -97 0 -97 11 0 17 82 87 101 87 7 0 23 10 36 22 39 37 35 14 -7 -39 -37 -47 -49 -73 -34 -73 14 0 63 42 69 59 11 37 118 186 132 185 8 -1 27 24 44 57 16 32 34 59 39 59 6 0 -5 -30 -24 -67z m862 38 c3 -8 -1 -12 -9 -9 -7 2 -15 10 -17 17 -3 8 1 12 9 9 7 -2 15 -10 17 -17z m12 -87 c0 -6 11 -21 25 -34 25 -24 33 -50 15 -50 -5 0 -10 5 -10 10 0 6 -16 28 -36 48 -31 32 -44 53 -72 117 -3 6 14 -10 36 -35 23 -25 41 -50 42 -56z m-279 4 c17 -35 38 -71 47 -81 8 -9 12 -20 8 -25 -10 -9 -31 19 -72 101 -19 37 -30 67 -24 67 5 0 24 -28 41 -62z m-521 39 c0 -6 -109 -239 -114 -245 -3 -3 -6 -14 -6 -24 0 -13 -7 -18 -25 -18 -14 0 -25 2 -25 4 0 2 15 28 33 58 17 30 52 93 77 141 25 48 48 87 53 87 4 0 7 -1 7 -3z m280 -13 c0 -8 -4 -12 -10 -9 -5 3 -10 10 -10 16 0 5 5 9 10 9 6 0 10 -7 10 -16z m699 -136 c67 -70 110 -122 106 -129 -5 -7 -29 10 -67 48 -63 61 -188 206 -188 218 0 13 38 -22 149 -137z m-679 72 c0 -11 -4 -20 -10 -20 -5 0 -10 9 -10 20 0 11 5 20 10 20 6 0 10 -9 10 -20z m-230 -139 c-15 -66 -21 -74 -43 -65 -23 8 -22 11 15 90 37 78 49 67 28 -25z m-118 -13 c-17 -17 -15 -31 3 -24 9 3 15 0 15 -9 0 -9 -10 -15 -25 -15 -14 0 -25 6 -25 13 0 17 31 60 38 52 3 -3 0 -11 -6 -17z m-435 -36 c21 17 27 1 14 -39 -8 -24 -11 -77 -9 -141 l3 -103 -25 6 c-47 12 -50 21 -50 138 0 89 3 114 17 129 11 12 20 15 27 8 6 -6 14 -6 23 2z m-96 -62 c5 0 9 -36 9 -80 0 -63 -3 -82 -15 -86 -20 -8 -69 12 -91 37 -16 18 -16 20 4 42 12 13 22 32 22 42 0 25 30 57 48 50 7 -3 18 -5 23 -5z m-107 -149 c12 -11 46 -28 76 -38 37 -12 56 -24 58 -37 4 -17 -1 -18 -48 -14 -31 3 -63 14 -82 28 -21 15 -33 19 -41 11 -13 -13 8 -41 30 -41 11 0 13 -5 8 -17 -5 -10 -11 -36 -14 -58 -7 -49 -31 -56 -85 -25 -31 19 -36 27 -36 60 0 22 4 41 9 44 5 4 12 25 16 49 4 23 9 45 12 50 9 15 77 7 97 -12z m108 -130 c4 -3 10 -43 14 -89 7 -80 6 -82 -15 -82 -24 0 -71 44 -71 67 0 7 -7 16 -15 19 -10 4 -12 15 -8 37 11 58 21 69 56 62 18 -4 35 -10 39 -14z m91 -168 c8 -240 22 -383 41 -418 11 -21 16 -55 16 -110 0 -66 -5 -89 -25 -129 -14 -27 -25 -58 -25 -68 0 -10 -7 -18 -15 -18 -10 0 -15 10 -15 30 0 17 -5 38 -11 48 -7 12 -8 94 -2 268 4 137 5 311 1 385 -3 77 -2 135 3 137 5 2 9 12 9 23 0 10 4 19 9 19 5 0 12 -75 14 -167z m125 157 c11 0 12 -36 6 -187 -4 -104 -7 -188 -8 -189 0 -1 -13 -4 -28 -8 l-28 -6 0 201 0 201 23 -6 c12 -3 28 -6 35 -6z m-298 -210 c0 -5 -4 -10 -10 -10 -5 0 -10 5 -10 10 0 6 5 10 10 10 6 0 10 -4 10 -10z m-26 -32 c3 -13 6 -69 6 -124 0 -108 14 -172 56 -257 37 -75 36 -77 -54 -77 -78 0 -164 20 -190 45 -10 9 -11 18 -4 31 21 43 34 147 30 246 l-3 105 35 16 c29 14 88 33 111 36 4 1 9 -9 13 -21z m106 12 c0 -5 -4 -10 -9 -10 -6 0 -13 5 -16 10 -3 6 1 10 9 10 9 0 16 -4 16 -10z m-60 -85 c0 -22 22 -29 35 -12 10 14 13 8 18 -39 7 -71 -3 -265 -14 -258 -5 3 -18 37 -30 76 -24 82 -39 266 -21 254 7 -4 12 -13 12 -21z m260 -105 c0 -5 -7 -10 -15 -10 -8 0 -15 5 -15 10 0 6 7 10 15 10 8 0 15 -4 15 -10z m398 -359 c3 -8 -1 -12 -9 -9 -7 2 -15 10 -17 17 -3 8 1 12 9 9 7 -2 15 -10 17 -17z m77 -1 c4 -6 -5 -10 -19 -10 -14 0 -26 5 -26 10 0 6 9 10 19 10 11 0 23 -4 26 -10z"
       id="path2"
       style="fill:#ffffff" />
    <path
       d="M1730 1290 c-19 -5 -92 -6 -162 -3 -96 5 -131 3 -143 -7 -12 -10 -15 -41 -15 -175 0 -212 -12 -200 192 -191 84 3 206 9 271 13 l117 6 -2 181 -3 181 -110 2 c-60 1 -126 -3 -145 -7z m208 -172 l-3 -143 -245 0 -245 0 0 130 0 130 195 11 c107 6 219 11 248 12 l53 2 -3 -142z"
       id="path4"
       style="fill:#ffffff" />
  </g>
</svg>
